<?xml version="1.0" encoding="UTF-8" standalone="no"?><svg xmlns="http://www.w3.org/2000/svg" xmlns:xlink="http://www.w3.org/1999/xlink" fill="#000000" height="465.4" preserveAspectRatio="xMidYMid meet" version="1" viewBox="0.0 0.0 465.4 465.4" width="465.4" zoomAndPan="magnify"><g id="change1_1"><path d="M261.4,0l-28.7,232.7L204,0H261.4z M261.4,465.4l-28.7-232.7L204,465.4H261.4z M0,261.4l232.7-28.7L0,204 V261.4z M465.4,204l-232.7,28.7l232.7,28.7V204z M88.5,417.5l144.2-184.8L47.9,377L88.5,417.5z M377,47.9L232.7,232.7L417.5,88.5 L377,47.9z M170.8,458.8l61.9-226.1L117.7,437L170.8,458.8z M294.6,6.6l-61.9,226.1l115-204.3L294.6,6.6z M347.7,437l-115-204.3 l61.9,226.1L347.7,437z M117.7,28.4l115,204.3L170.8,6.6L117.7,28.4z M458.8,294.6l-226.1-61.9l204.3,115L458.8,294.6z M6.6,170.8 l226.1,61.9l-204.3-115L6.6,170.8z M437,117.7l-204.3,115l226.1-61.9L437,117.7z M28.4,347.7l204.3-115L6.6,294.6L28.4,347.7z M417.5,377L232.7,232.7L377,417.5L417.5,377z M47.9,88.5l184.8,144.2L88.5,47.9L47.9,88.5z" fill="#f6f6e9"/></g></svg>