<svg width="41" height="57" viewBox="0 0 41 57" xmlns="http://www.w3.org/2000/svg"> <path d="M31.2003 37.8435H31.1971C30.1653 36.9059 29.151 35.8983 28.0421 34.9453C26.2765 33.4296 27.1788 31.5674 28.3356 29.0528C28.8346 27.9665 28.976 24.7306 28.9825 23.676C28.9988 20.5275 30.8405 18.9407 31.4047 18.5287C31.4949 18.4632 31.5178 18.3386 31.4591 18.2446L20.6906 1.02691C20.6079 0.894676 20.4166 0.894676 20.334 1.02691L9.56548 18.2457C9.50677 18.3397 9.53069 18.4642 9.61984 18.5298C10.1841 18.9418 12.0247 20.5286 12.0432 23.6771C12.0486 24.7328 12.1899 27.9687 12.6889 29.0538C13.8457 31.5685 14.7491 33.4296 12.9836 34.9464C11.8746 35.8994 10.8603 36.907 9.82749 37.8446H9.82858C4.25679 42.9121 -0.881208 47.643 0.12878 56.5049C0.141826 56.6185 0.319036 56.7256 0.428841 56.6764C1.82586 56.0568 5.52227 52.9619 7.18239 51.6745C8.84033 50.3893 12.5106 47.5086 13.9316 47.5086C15.084 47.5086 17.1007 47.9403 17.1007 47.9403L13.0281 53.5302C13.0107 53.5509 13.0401 53.5782 13.0597 53.5597C19.6806 46.7327 20.3177 44.4694 20.8395 43.7886H27.2082C27.2321 43.758 34.975 54.9683 40.6327 56.6775C40.7707 56.7191 40.9197 56.6535 40.9316 56.5081C41.6394 47.537 36.8254 42.946 31.2003 37.8435Z"></path> </svg>